<svg id="Layer_1" data-name="Layer 1" xmlns="http://www.w3.org/2000/svg" viewBox="0 0 940 940"><defs><style>.cls-1{fill:#303040;}.cls-2{fill:#7153ff;}.cls-3{fill:none;stroke:#7153ff;stroke-miterlimit:10;stroke-width:3px;}</style></defs><title>thumbs-lines</title><rect class="cls-1" width="940" height="940"/><path class="cls-2" d="M488.79,590h0C488.87,589.81,488.94,589.61,488.79,590Z"/><path class="cls-2" d="M488.8,590c-.07.19-.14.38,0,0,4.26-12.38,12.28-28.53,8.55-41.42A35.9,35.9,0,0,0,483.11,529a43.6,43.6,0,0,0-8.52-4.53c-6.64-2.65-13.25-2.64-20.3-2.64H363.35c-2.63-19.3,23.68-100.87,19.3-135.07s-54.38-33.33-54.38-33.33,3.51,42.1-6.14,68.41S224.77,590.2,224.77,590.2H188.92a14.77,14.77,0,0,0-14.78,14.26c-1.9,62.13,9,95,16.6,110.06a18.51,18.51,0,0,0,17.38,10.26c16-.71,45.19-1.89,50.86-1.26,6.83.76,15.78,1.85,21.73,4.74,9,4.37,15.36,16.35,25.31,17.5,21.62,2.51,38,1.49,60.81.57,21.05-.86,45.73,1.43,65.57-5.82,38.39-14,23-46.81,23-46.81,36-4.39,28.07-46.49,28.07-46.49C518.88,618.89,488.9,590.11,488.8,590Z"/><path class="cls-2" d="M482,350h0C481.89,350.19,481.82,350.39,482,350Z"/><path class="cls-2" d="M482,350c.07-.19.14-.38,0,0-4.26,12.38-12.28,28.53-8.55,41.42A35.9,35.9,0,0,0,487.64,411a43.6,43.6,0,0,0,8.52,4.53c6.64,2.65,13.25,2.64,20.3,2.64H607.4c2.63,19.3-23.68,100.87-19.3,135.07s54.38,33.33,54.38,33.33-3.51-42.1,6.14-68.41S746,349.8,746,349.8h35.85a14.77,14.77,0,0,0,14.78-14.26c1.9-62.13-9-95-16.6-110.06a18.51,18.51,0,0,0-17.38-10.26c-16,.71-45.19,1.89-50.86,1.26-6.83-.76-15.78-1.85-21.73-4.74-9-4.37-15.36-16.35-25.31-17.5-21.62-2.51-38-1.49-60.81-.57-21.05.86-45.73-1.43-65.57,5.82-38.39,14-23,46.81-23,46.81-36,4.39-28.07,46.49-28.07,46.49C451.88,321.11,481.85,349.89,482,350Z"/><path class="cls-3" d="M473.42,590h0C473.49,589.81,473.56,589.61,473.42,590Z"/><path class="cls-3" d="M473.42,590c-.07.19-.14.38,0,0,4.26-12.38,12.28-28.53,8.55-41.42A35.9,35.9,0,0,0,467.73,529a43.6,43.6,0,0,0-8.52-4.53c-6.64-2.65-13.25-2.64-20.3-2.64H348c-2.63-19.3,23.68-100.87,19.3-135.07s-54.38-33.33-54.38-33.33,3.51,42.1-6.14,68.41S209.39,590.2,209.39,590.2H173.54a14.77,14.77,0,0,0-14.78,14.26c-1.9,62.13,9,95,16.6,110.06a18.51,18.51,0,0,0,17.38,10.26c16-.71,45.19-1.89,50.86-1.26,6.83.76,15.78,1.85,21.73,4.74,9,4.37,15.36,16.35,25.31,17.5,21.62,2.51,38,1.49,60.81.57,21.05-.86,45.73,1.43,65.57-5.82,38.39-14,23-46.81,23-46.81,36-4.39,28.07-46.49,28.07-46.49C503.5,618.89,473.53,590.11,473.42,590Z"/><path class="cls-3" d="M466.58,350h0C466.51,350.19,466.44,350.39,466.58,350Z"/><path class="cls-3" d="M466.58,350c.07-.19.14-.38,0,0-4.26,12.38-12.28,28.53-8.55,41.42A35.9,35.9,0,0,0,472.27,411a43.6,43.6,0,0,0,8.52,4.53c6.64,2.65,13.25,2.64,20.3,2.64H592c2.63,19.3-23.68,100.87-19.3,135.07s54.38,33.33,54.38,33.33-3.51-42.1,6.14-68.41S730.61,349.8,730.61,349.8h35.85a14.77,14.77,0,0,0,14.78-14.26c1.9-62.13-9-95-16.6-110.06a18.51,18.51,0,0,0-17.38-10.26c-16,.71-45.19,1.89-50.86,1.26-6.83-.76-15.78-1.85-21.73-4.74-9-4.37-15.36-16.35-25.31-17.5-21.62-2.51-38-1.49-60.81-.57-21.05.86-45.73-1.43-65.57,5.82-38.39,14-23,46.81-23,46.81-36,4.39-28.07,46.49-28.07,46.49C436.5,321.11,466.47,349.89,466.58,350Z"/><path class="cls-3" d="M458,590h0C458.11,589.81,458.18,589.61,458,590Z"/><path class="cls-3" d="M458,590c-.07.19-.14.38,0,0,4.26-12.38,12.28-28.53,8.55-41.42A35.9,35.9,0,0,0,452.36,529a43.6,43.6,0,0,0-8.52-4.53c-6.64-2.65-13.25-2.64-20.3-2.64H332.6c-2.63-19.3,23.68-100.87,19.3-135.07s-54.38-33.33-54.38-33.33,3.51,42.1-6.14,68.41S194,590.2,194,590.2H158.16a14.77,14.77,0,0,0-14.78,14.26c-1.9,62.13,9,95,16.6,110.06a18.51,18.51,0,0,0,17.38,10.26c16-.71,45.19-1.89,50.86-1.26,6.83.76,15.78,1.85,21.73,4.74,9,4.37,15.36,16.35,25.31,17.5,21.62,2.51,38,1.49,60.81.57,21.05-.86,45.73,1.43,65.57-5.82,38.39-14,23-46.81,23-46.81,36-4.39,28.07-46.49,28.07-46.49C488.12,618.89,458.15,590.11,458,590Z"/><path class="cls-3" d="M451.21,350h0C451.13,350.19,451.06,350.39,451.21,350Z"/><path class="cls-3" d="M451.2,350c.07-.19.14-.38,0,0-4.26,12.38-12.28,28.53-8.55,41.42A35.9,35.9,0,0,0,456.89,411a43.6,43.6,0,0,0,8.52,4.53c6.64,2.65,13.25,2.64,20.3,2.64h90.93c2.63,19.3-23.68,100.87-19.3,135.07s54.38,33.33,54.38,33.33-3.51-42.1,6.14-68.41S715.23,349.8,715.23,349.8h35.85a14.77,14.77,0,0,0,14.78-14.26c1.9-62.13-9-95-16.6-110.06a18.51,18.51,0,0,0-17.38-10.26c-16,.71-45.19,1.89-50.86,1.26-6.83-.76-15.78-1.85-21.73-4.74-9-4.37-15.36-16.35-25.31-17.5-21.62-2.51-38-1.49-60.81-.57-21.05.86-45.73-1.43-65.57,5.82-38.39,14-23,46.81-23,46.81-36,4.39-28.07,46.49-28.07,46.49C421.12,321.11,451.1,349.89,451.2,350Z"/></svg>