<svg id="Layer_1" data-name="Layer 1" xmlns="http://www.w3.org/2000/svg" viewBox="0 0 940 940"><defs><style>.cls-1{fill:#303040;}.cls-2{opacity:0.67;}.cls-3{fill:#d0aa00;}.cls-4{fill:#7153ff;}</style></defs><title>thumbs-transparent</title><rect class="cls-1" width="940" height="940"/><g class="cls-2"><path class="cls-3" d="M318.54,430.35h0C318.47,430.54,318.4,430.74,318.54,430.35Z"/><path class="cls-3" d="M318.54,430.35c.07-.19.14-.38,0,0-4.26,12.38-12.28,28.53-8.55,41.42a35.9,35.9,0,0,0,14.23,19.63,43.6,43.6,0,0,0,8.52,4.53c6.64,2.65,13.25,2.64,20.3,2.64H444c2.63,19.3-23.68,100.87-19.3,135.07S479.07,667,479.07,667s-3.51-42.1,6.14-68.41,97.36-168.41,97.36-168.41h35.85a14.77,14.77,0,0,0,14.78-14.26c1.9-62.13-9-95-16.6-110.06a18.51,18.51,0,0,0-17.38-10.26c-16,.71-45.19,1.89-50.86,1.26-6.83-.76-15.78-1.85-21.73-4.74-9-4.37-15.36-16.35-25.31-17.5-21.62-2.51-38-1.49-60.81-.57-21.05.86-45.73-1.43-65.57,5.82-38.39,14-23,46.81-23,46.81-36,4.39-28.07,46.49-28.07,46.49C288.46,401.46,318.43,430.25,318.54,430.35Z"/></g><g class="cls-2"><path class="cls-4" d="M621.46,509.65h0C621.53,509.46,621.6,509.26,621.46,509.65Z"/><path class="cls-4" d="M621.46,509.65c-.07.19-.14.38,0,0,4.26-12.38,12.28-28.53,8.55-41.42a35.9,35.9,0,0,0-14.23-19.63,43.6,43.6,0,0,0-8.52-4.53c-6.64-2.65-13.25-2.64-20.3-2.64H496c-2.63-19.3,23.68-100.87,19.3-135.07S460.93,273,460.93,273s3.51,42.1-6.14,68.41-97.36,168.41-97.36,168.41H321.58a14.77,14.77,0,0,0-14.78,14.26c-1.9,62.13,9,95,16.6,110.06a18.51,18.51,0,0,0,17.38,10.26c16-.71,45.19-1.89,50.86-1.26,6.83.76,15.78,1.85,21.73,4.74,9,4.37,15.36,16.35,25.31,17.5,21.62,2.51,38,1.49,60.81.57,21.05-.86,45.73,1.43,65.57-5.82,38.39-14,23-46.81,23-46.81,36-4.39,28.07-46.49,28.07-46.49C651.54,538.54,621.57,509.75,621.46,509.65Z"/></g></svg>